<svg width="299" height="348" viewBox="0 0 299 348" fill="none" xmlns="http://www.w3.org/2000/svg">
    <g clip-path="url(#clip0_1846_37247)">
        <path d="M240.074 104.167C239.409 105.877 238.538 107.027 238.152 108.477C237.789 109.86 237.84 117.311 238.022 122.039C240.78 126.448 242.111 132.842 242.458 139.852C242.935 149.517 249.55 161.148 249.55 167.854C249.55 172.211 245.933 179.642 239.464 182.109C241.576 198.712 238.81 218.042 237.793 219.484C239.117 225.394 242.454 244.558 245.161 259.818C260.665 241.694 271.831 221.032 277.3 198.81C284.94 167.601 281.319 133.331 267.714 107.957L240.074 104.167Z" fill="#ECECEC"/>
        <path d="M273.009 320.688C271.559 318.682 250.263 285.121 248.924 279.991C247.698 275.294 239.996 229.279 237.805 219.484C236.658 219.724 234.078 219.523 230.76 219.019C220.327 227.77 222.561 268.884 223.321 270.882C224.212 273.246 260.641 326.042 263.762 328.485C266.875 328.493 273.439 323.588 273.009 320.688Z" fill="#2B0A3D"/>
        <path d="M236.485 219.594C229.07 219.594 202.975 213.519 199.303 209.862C199.697 217.79 205.095 262.812 205.808 269.223C206.572 276.106 218.373 331.665 219.417 333.052C220.461 334.438 228.404 334.139 229.775 333.446C231.146 332.752 227.096 275.527 227.096 271.378C227.096 267.43 236.796 232.427 236.485 219.594Z" fill="#2B0A3D"/>
        <path d="M250.783 85.8929C234.594 71.2675 212.171 65.0501 186.955 62.1502V92.8471L191.529 93.4735C192.558 91.8975 193.846 90.6919 194.701 90.6643C195.383 91.145 196.167 92.5595 196.876 94.2103L231.001 98.8753V98.4577C231 98.0317 231.084 97.6098 231.246 97.2162C231.409 96.8225 231.648 96.4649 231.949 96.1636C232.25 95.8624 232.608 95.6236 233.002 95.4608C233.395 95.298 233.817 95.2145 234.243 95.215H234.637C235.063 95.2145 235.485 95.298 235.879 95.4608C236.272 95.6236 236.63 95.8624 236.931 96.1636C237.232 96.4649 237.471 96.8225 237.634 97.2162C237.797 97.6098 237.88 98.0317 237.88 98.4577V99.817L238.195 99.8564C238.357 98.7571 238.589 97.5475 239.834 97.8155C240.228 97.8943 240.476 99.0408 240.598 100.179L265.176 103.536C261.262 96.9869 256.413 91.0433 250.783 85.8929Z" fill="#ECECEC"/>
        <path d="M199.677 98.6428L198.416 98.4734C198.671 99.2648 198.849 100.079 198.948 100.904C199.062 100.115 199.309 99.3503 199.677 98.6428Z" fill="#ECECEC"/>
        <path d="M231.304 102.969L203.475 99.1629C203.159 101.734 202.179 104.178 200.631 106.255C200.745 109.265 204.571 139.079 205.189 140.805C205.662 142.137 209.949 149.146 211.887 152.755C212.296 152.695 212.712 152.695 213.121 152.755C213.96 152.889 215.8 155.844 217.506 159.773C218.617 159.017 219.862 158.482 221.174 158.197V148.346C216.363 146.534 212.833 140.6 212.833 133.552C212.819 131.033 213.293 128.535 214.228 126.196C214.051 125.452 213.963 124.69 213.964 123.926C213.964 119.222 218.979 115.999 227.632 115.999C228.538 115.995 229.441 116.089 230.327 116.278C231.024 112.264 231.741 108.154 231.989 107.11C232.565 104.651 230.811 103.099 231.304 102.969Z" fill="#ECECEC"/>
        <path d="M199.303 209.862C199.097 209.685 198.949 209.45 198.877 209.189C197.522 201.899 200.977 186.226 206.757 174.122C202.337 169.788 198.661 164.568 198.57 163.646C198.499 162.885 198.964 161.896 199.752 160.821C197.821 157.515 194.63 149.887 194.236 147.862C193.787 145.521 192.66 110.534 192.66 108.461C192.66 106.389 189.91 101.184 189.91 98.0637C189.911 97.8145 189.929 97.5657 189.965 97.319L186.955 96.925V189.24C186.955 190.4 186.726 191.548 186.282 192.62C185.838 193.691 185.188 194.665 184.367 195.485C183.547 196.305 182.573 196.955 181.501 197.399C180.43 197.842 179.281 198.07 178.121 198.07H46.2521C45.0919 198.069 43.9433 197.839 42.8719 197.394C41.8006 196.949 40.8274 196.297 40.0081 195.475C39.1889 194.654 38.5395 193.679 38.0972 192.606C37.6549 191.534 37.4283 190.385 37.4304 189.224V68.6119C30.6929 71.5787 24.7553 75.3927 19.8539 80.2941C-3.44754 103.666 -3.3057 151.562 5.44119 200.465C14.2511 249.357 31.674 299.191 66.6615 318.119C101.649 337.047 154.056 324.927 195.426 300.838C200.474 297.891 205.348 294.769 210.047 291.472C207.861 280.881 206.084 271.772 205.804 269.223C205.095 262.801 199.701 217.79 199.303 209.862Z" fill="#ECECEC"/>
        <path d="M227.384 277.276C227.384 277.454 227.384 277.631 227.415 277.816L227.62 277.631L227.384 277.276Z" fill="#ECECEC"/>
        <path d="M234.657 95.1992H234.259C232.468 95.1992 231.016 96.651 231.016 98.4419V100.109C231.016 101.899 232.468 103.351 234.259 103.351H234.657C236.448 103.351 237.9 101.899 237.9 100.109V98.4419C237.9 96.651 236.448 95.1992 234.657 95.1992Z" stroke="#2B0A3D" stroke-width="0.98501" stroke-linecap="round" stroke-linejoin="round"/>
        <path d="M221.178 158.165V148.319" stroke="#2B0A3D" stroke-width="0.98501" stroke-linecap="round" stroke-linejoin="round"/>
        <path d="M178.137 48.5019H46.2521C41.3735 48.5019 37.4185 52.4568 37.4185 57.3355V189.22C37.4185 194.099 41.3735 198.054 46.2521 198.054H178.137C183.016 198.054 186.971 194.099 186.971 189.22V57.3355C186.971 52.4568 183.016 48.5019 178.137 48.5019Z" stroke="#2B0A3D" stroke-width="0.98501" stroke-linecap="round" stroke-linejoin="round"/>
        <path d="M121.542 116.645C123.594 114.762 125.03 112.303 125.661 109.591C126.292 106.878 126.089 104.038 125.078 101.443C124.068 98.8475 122.297 96.6178 119.999 95.0458C117.7 93.4738 114.98 92.6327 112.195 92.6327C109.41 92.6327 106.69 93.4738 104.391 95.0458C102.092 96.6178 100.321 98.8475 99.3108 101.443C98.3005 104.038 98.0975 106.878 98.7285 109.591C99.3594 112.303 100.795 114.762 102.847 116.645L92.1969 159.832H132.18L121.542 116.645Z" fill="#0070AD"/>
        <path d="M64.1832 48.5019C64.2979 35.8438 69.4068 23.7432 78.3982 14.8329C87.3896 5.92254 99.536 0.923523 112.195 0.923523C124.853 0.923523 137 5.92254 145.991 14.8329C154.982 23.7432 160.091 35.8438 160.206 48.5019" stroke="#2B0A3D" stroke-width="0.98501" stroke-linecap="round" stroke-linejoin="round"/>
        <path d="M224.263 148.89C230.574 148.89 235.689 142.011 235.689 133.524C235.689 125.038 230.574 118.158 224.263 118.158C217.953 118.158 212.837 125.038 212.837 133.524C212.837 142.011 217.953 148.89 224.263 148.89Z" stroke="#2B0A3D" stroke-width="0.98501" stroke-linecap="round" stroke-linejoin="round"/>
        <path d="M206.769 174.15C200.973 186.246 197.522 201.919 198.889 209.216C199.591 212.983 232.742 220.583 237.809 219.519C239.61 217.069 246.958 158.031 222.719 158.031C220.852 158.086 219.044 158.692 217.522 159.773" stroke="#2B0A3D" stroke-width="0.98501" stroke-linecap="round" stroke-linejoin="round"/>
        <path d="M220.512 177.696C223.526 170.95 215.217 153.09 213.125 152.751C208.858 152.062 198.247 160.237 198.582 163.673C198.7 164.895 205.103 173.665 211.19 177.889" stroke="#2B0A3D" stroke-width="0.98501" stroke-linecap="round" stroke-linejoin="round"/>
        <path d="M285.739 106.326L145.941 87.2254L145.396 91.219L285.193 110.319L285.739 106.326Z" fill="#0070AD"/>
        <path d="M153.944 92.3853L145.394 91.2173L143.814 102.784L152.363 103.952L153.944 92.3853Z" fill="#0070AD"/>
        <path d="M162.178 93.5121L157.579 92.8838L155.999 104.451L160.598 105.079L162.178 93.5121Z" fill="#0070AD"/>
        <path d="M238.27 125.79C237.943 123.922 237.647 110.388 238.152 108.477C238.656 106.566 240.019 105.171 240.63 102.319C240.839 101.338 240.508 97.9415 239.842 97.7997C238.408 97.4924 238.325 99.0999 238.136 100.282C237.403 104.313 235.91 103.576 235.22 103.481C234.531 103.387 232.163 102.977 231.387 102.957C230.611 102.937 232.588 104.533 231.986 107.082C231.513 109.088 229.291 122.449 228.834 124.635C230.492 124.698 238.27 125.79 238.27 125.79Z" stroke="#2B0A3D" stroke-width="0.98501" stroke-linecap="round" stroke-linejoin="round"/>
        <path d="M170.026 94.5844L165.427 93.9561L163.847 105.523L168.446 106.151L170.026 94.5844Z" fill="#0070AD"/>
        <path d="M170.027 94.5837L145.398 91.2187L144.838 95.3177L169.467 98.6827L170.027 94.5837Z" fill="#0070AD"/>
        <path d="M289.471 98.237C287.422 97.9576 285.336 98.2921 283.477 99.1981C281.618 100.104 280.069 101.541 279.027 103.327C277.984 105.113 277.495 107.168 277.62 109.233C277.746 111.297 278.481 113.277 279.732 114.924C280.983 116.571 282.694 117.81 284.649 118.484C286.604 119.158 288.715 119.237 290.715 118.712C292.716 118.186 294.515 117.079 295.886 115.531C297.257 113.983 298.139 112.063 298.419 110.014C298.604 108.653 298.521 107.269 298.171 105.94C297.822 104.612 297.215 103.365 296.384 102.272C295.553 101.178 294.515 100.259 293.329 99.5667C292.143 98.8744 290.832 98.4226 289.471 98.237ZM295.109 109.561C294.918 110.956 294.318 112.263 293.384 113.317C292.45 114.372 291.225 115.125 289.863 115.483C288.501 115.84 287.063 115.786 285.732 115.327C284.401 114.867 283.236 114.023 282.384 112.902C281.533 111.78 281.033 110.431 280.948 109.025C280.863 107.62 281.197 106.22 281.908 105.005C282.618 103.789 283.673 102.811 284.94 102.195C286.206 101.578 287.626 101.352 289.022 101.543C290.892 101.799 292.584 102.788 293.725 104.291C294.867 105.795 295.365 107.69 295.109 109.561Z" fill="#0070AD"/>
        <path fill-rule="evenodd" clip-rule="evenodd" d="M272.45 321.708L281.236 332.855L270.933 347.433L261.225 347.511L270.038 335.786L265.204 327.677L272.45 321.708Z" stroke="#2B0A3D" stroke-width="0.98501" stroke-linecap="round" stroke-linejoin="round"/>
        <path d="M228.849 332.949L229.452 347.508H200.603L221.068 338.8L221.442 332.949" stroke="#2B0A3D" stroke-width="0.98501" stroke-linecap="round" stroke-linejoin="round"/>
        <path d="M199.76 160.828C197.829 157.519 194.638 149.895 194.244 147.87C193.795 145.529 192.668 110.542 192.668 108.469C192.668 106.397 189.91 101.184 189.91 98.0636C189.91 94.9431 193.086 90.7115 194.701 90.6564C196.427 91.8817 198.822 99.0684 198.933 100.9C199.535 96.9604 202.388 96.0542 203.168 96.0542C203.948 96.0542 203.846 102.142 200.615 106.239C200.729 109.249 204.555 139.064 205.174 140.789C205.646 142.117 209.933 149.127 211.872 152.74" stroke="#2B0A3D" stroke-width="0.98501" stroke-linecap="round" stroke-linejoin="round"/>
        <path d="M199.76 160.828C197.829 157.519 194.638 149.895 194.244 147.87C193.795 145.529 192.668 110.542 192.668 108.469C192.668 106.397 189.91 101.184 189.91 98.0636C189.91 94.9431 193.086 90.7115 194.701 90.6564C196.427 91.8817 198.822 99.0684 198.933 100.9C199.535 96.9604 202.388 96.0542 203.168 96.0542C203.948 96.0542 203.846 102.142 200.615 106.239C200.729 109.249 204.555 139.064 205.174 140.789C205.646 142.117 209.933 149.127 211.872 152.74" stroke="#2B0A3D" stroke-width="0.98501" stroke-linecap="round" stroke-linejoin="round"/>
        <path d="M242.458 139.871C241.816 126.869 237.773 115.991 227.636 115.991C218.968 115.991 213.968 119.214 213.968 123.918C213.968 128.623 216.962 131.798 221.848 133.697C222.168 133.287 222.588 132.964 223.067 132.76C223.546 132.556 224.069 132.478 224.587 132.532C225.105 132.586 225.601 132.771 226.028 133.07C226.454 133.368 226.798 133.77 227.027 134.238C227.255 134.706 227.361 135.225 227.333 135.745C227.306 136.265 227.147 136.77 226.871 137.211C226.595 137.653 226.211 138.017 225.756 138.269C225.3 138.522 224.788 138.654 224.267 138.654C224.135 138.653 224.003 138.642 223.873 138.622C224.188 142.019 224.823 143.027 224.823 146.361C224.823 155.903 223.195 151.132 223.195 167.609C223.195 177.546 227.356 182.952 235.015 182.952C244.278 182.952 249.594 173.153 249.594 167.873C249.562 161.148 242.935 149.517 242.458 139.871Z" fill="#2B0A3D"/>
        <path d="M221.43 134.355C221.668 133.787 222.072 133.303 222.589 132.967C223.105 132.631 223.711 132.458 224.327 132.471C224.943 132.484 225.541 132.681 226.044 133.038C226.546 133.395 226.93 133.895 227.145 134.472C227.36 135.05 227.396 135.679 227.249 136.277C227.102 136.876 226.778 137.416 226.32 137.828C225.862 138.24 225.29 138.505 224.68 138.589C224.069 138.672 223.448 138.57 222.896 138.295" stroke="#2B0A3D" stroke-width="0.98501" stroke-linecap="round" stroke-linejoin="round"/>
    </g>
    <defs>
        <clipPath id="clip0_1846_37247">
            <rect width="298.513" height="348" fill="white"/>
        </clipPath>
    </defs>
</svg>
