<svg width="83" height="32" viewBox="0 0 83 32" fill="none" xmlns="http://www.w3.org/2000/svg">
    <path d="M16.2793 30.7657L23.9795 27.1499C25.485 26.3992 25.4502 24.9775 25.4477 23.6548C25.4446 22.0014 25.4461 22.8281 27.2354 19.5178L27.2359 19.5168C29.0248 16.2071 29.9193 14.5523 29.913 11.2459C29.9067 7.93911 27.2055 3.81066 22.7135 2.16583C18.2215 0.520998 12.8348 0.531259 9.24845 3.01817C5.66208 5.50508 5.6668 7.98515 4.77376 10.4669C3.88072 12.9487 4.77848 12.947 4.78006 13.7737C4.78164 14.6004 2.09304 17.0856 2.09461 17.9123C2.09619 18.739 2.99553 19.5639 3.8933 19.5622C4.79108 19.5605 4.27929 20.1974 4.08955 21.5866C4.02029 22.0937 4.0931 23.4537 4.09488 24.3872C4.09713 25.568 4.84327 27.0187 6.08814 27.184C7.46722 27.367 9.68189 27.8181 11.0912 27.8154C12.255 27.8132 14.4535 31.7027 16.2793 30.7657Z" fill="#0070AD"/>
    <path d="M14.9141 6.50781L16.75 13.8516" stroke="#12ABDB" stroke-width="1.83594"/>
    <path d="M9.40625 10.1797L16.75 13.8516" stroke="#12ABDB" stroke-width="1.83594"/>
    <path d="M16.75 13.8516L21.3398 9.26172" stroke="#12ABDB" stroke-width="1.83594"/>
    <path d="M23.1758 3.75391L21.3398 9.26172" stroke="#12ABDB" stroke-width="1.83594"/>
    <path d="M12.1602 5.58984L14.9141 6.50781" stroke="#12ABDB" stroke-width="1.83594"/>
    <path d="M17.668 3.75391L14.9141 6.50781" stroke="#12ABDB" stroke-width="1.83594"/>
    <path d="M26.8477 7.42578L21.3398 9.26172" stroke="#12ABDB" stroke-width="1.83594"/>
    <path d="M16.75 13.8516H25.9297" stroke="#12ABDB" stroke-width="1.83594"/>
    <path d="M23.1758 16.6055L25.9297 13.8516" stroke="#12ABDB" stroke-width="1.83594"/>
    <path d="M25.0117 18.4414L25.9297 13.8516" stroke="#12ABDB" stroke-width="1.83594"/>
    <path d="M8.48828 5.58984L9.40625 10.1797" stroke="#12ABDB" stroke-width="1.83594"/>
    <path d="M26.8477 11.0977L25.9297 13.8516" stroke="#12ABDB" stroke-width="1.83594"/>
    <rect x="13.0781" y="10.1797" width="7.34375" height="7.34375" rx="3.67188" fill="white"/>
    <rect x="13.0781" y="4.67188" width="3.67188" height="3.67188" rx="1.83594" fill="white"/>
    <rect x="18.5859" y="4.67188" width="5.50781" height="5.50781" rx="2.75391" fill="white"/>
    <rect x="22.2578" y="2.83594" width="1.83594" height="1.83594" rx="0.917969" fill="white"/>
    <rect x="25.9297" y="6.50781" width="1.83594" height="1.83594" rx="0.917969" fill="white"/>
    <rect x="22.2578" y="15.6875" width="1.83594" height="1.83594" rx="0.917969" fill="white"/>
    <rect x="24.0938" y="17.5234" width="1.83594" height="1.83594" rx="0.917969" fill="white"/>
    <rect x="7.57031" y="4.67188" width="1.83594" height="1.83594" rx="0.917969" fill="white"/>
    <rect x="11.2422" y="4.67188" width="1.83594" height="1.83594" rx="0.917969" fill="white"/>
    <rect x="16.75" y="2.83594" width="1.83594" height="1.83594" rx="0.917969" fill="white"/>
    <rect x="25.9297" y="10.1797" width="1.83594" height="1.83594" rx="0.917969" fill="white"/>
    <rect x="24.0938" y="12.0156" width="3.67188" height="3.67188" rx="1.83594" fill="white"/>
    <rect x="7.57031" y="8.34375" width="3.67188" height="3.67188" rx="1.83594" fill="white"/>
    <path d="M39.824 14.296C40.688 14.296 41.36 14.1413 41.84 13.832C42.32 13.512 42.56 13 42.56 12.296C42.56 11.8907 42.48 11.5547 42.32 11.288C42.1707 11.0107 41.968 10.7813 41.712 10.6C41.456 10.408 41.1627 10.248 40.832 10.12C40.5013 9.98133 40.1547 9.83733 39.792 9.688C39.3333 9.50667 38.9227 9.32 38.56 9.128C38.1973 8.936 37.888 8.72267 37.632 8.488C37.376 8.24267 37.1787 7.96533 37.04 7.656C36.912 7.34667 36.848 6.984 36.848 6.568C36.848 5.61867 37.1627 4.89867 37.792 4.408C38.4213 3.91733 39.296 3.672 40.416 3.672C40.7147 3.672 41.008 3.69333 41.296 3.736C41.584 3.77867 41.8507 3.83733 42.096 3.912C42.352 3.976 42.5813 4.05067 42.784 4.136C42.9973 4.22133 43.1733 4.312 43.312 4.408L42.928 5.32C42.6187 5.10667 42.24 4.936 41.792 4.808C41.3547 4.68 40.88 4.616 40.368 4.616C40.016 4.616 39.6907 4.65333 39.392 4.728C39.104 4.792 38.8533 4.904 38.64 5.064C38.4267 5.21333 38.256 5.40533 38.128 5.64C38.0107 5.87467 37.952 6.15733 37.952 6.488C37.952 6.82933 38.016 7.11733 38.144 7.352C38.272 7.58667 38.448 7.78933 38.672 7.96C38.9067 8.13067 39.1787 8.28533 39.488 8.424C39.7973 8.56267 40.1333 8.70667 40.496 8.856C40.9333 9.03733 41.344 9.21867 41.728 9.4C42.1227 9.58133 42.464 9.79467 42.752 10.04C43.04 10.2853 43.2693 10.584 43.44 10.936C43.6107 11.288 43.696 11.72 43.696 12.232C43.696 13.2347 43.344 13.9867 42.64 14.488C41.9467 14.9893 41.0027 15.24 39.808 15.24C39.3813 15.24 38.992 15.2133 38.64 15.16C38.288 15.1067 37.9733 15.0427 37.696 14.968C37.4187 14.8827 37.184 14.7973 36.992 14.712C36.8 14.6267 36.6507 14.552 36.544 14.488L36.896 13.544C37.0027 13.608 37.1467 13.6827 37.328 13.768C37.5093 13.8533 37.7227 13.9387 37.968 14.024C38.2133 14.0987 38.4907 14.1627 38.8 14.216C39.1093 14.2693 39.4507 14.296 39.824 14.296ZM45.6416 7.016C45.951 6.93067 46.351 6.83467 46.8416 6.728C47.343 6.62133 47.9883 6.568 48.7776 6.568C49.823 6.568 50.5803 6.872 51.0496 7.48C51.103 7.43733 51.2043 7.368 51.3536 7.272C51.5136 7.16533 51.711 7.05867 51.9456 6.952C52.1803 6.84533 52.4523 6.75467 52.7616 6.68C53.0816 6.60533 53.4336 6.568 53.8176 6.568C54.447 6.568 54.9536 6.664 55.3376 6.856C55.7323 7.03733 56.0363 7.29867 56.2496 7.64C56.463 7.97067 56.607 8.37067 56.6816 8.84C56.7563 9.30933 56.7936 9.82133 56.7936 10.376V15H55.7536V10.712C55.7536 10.168 55.727 9.69867 55.6736 9.304C55.631 8.89867 55.535 8.568 55.3856 8.312C55.247 8.04533 55.0443 7.848 54.7776 7.72C54.511 7.58133 54.1643 7.512 53.7376 7.512C53.4176 7.512 53.1243 7.544 52.8576 7.608C52.6016 7.66133 52.3776 7.73067 52.1856 7.816C51.9936 7.90133 51.8336 7.98667 51.7056 8.072C51.5883 8.15733 51.503 8.22133 51.4496 8.264C51.5456 8.54133 51.615 8.856 51.6576 9.208C51.711 9.54933 51.7376 9.912 51.7376 10.296V15H50.6976V10.712C50.6976 10.168 50.671 9.69867 50.6176 9.304C50.575 8.89867 50.479 8.568 50.3296 8.312C50.1803 8.04533 49.967 7.848 49.6896 7.72C49.423 7.58133 49.0656 7.512 48.6176 7.512C48.1163 7.512 47.6896 7.53867 47.3376 7.592C46.9963 7.64533 46.7776 7.69333 46.6816 7.736V15H45.6416V7.016ZM62.0621 14.248C62.4675 14.248 62.8195 14.2373 63.1181 14.216C63.4275 14.184 63.6888 14.1467 63.9021 14.104V11.192C63.7848 11.1387 63.5981 11.0853 63.3421 11.032C63.0861 10.968 62.7341 10.936 62.2861 10.936C62.0301 10.936 61.7635 10.9573 61.4861 11C61.2088 11.032 60.9528 11.112 60.7181 11.24C60.4835 11.3573 60.2915 11.5227 60.1421 11.736C59.9928 11.9493 59.9181 12.232 59.9181 12.584C59.9181 12.8933 59.9661 13.1547 60.0621 13.368C60.1688 13.5813 60.3128 13.752 60.4941 13.88C60.6861 14.008 60.9101 14.104 61.1661 14.168C61.4328 14.2213 61.7315 14.248 62.0621 14.248ZM61.9661 6.536C62.5101 6.536 62.9688 6.616 63.3421 6.776C63.7261 6.92533 64.0355 7.13867 64.2701 7.416C64.5048 7.68267 64.6755 8.00267 64.7821 8.376C64.8888 8.74933 64.9421 9.15467 64.9421 9.592V14.808C64.8355 14.84 64.6808 14.8773 64.4781 14.92C64.2755 14.952 64.0408 14.9893 63.7741 15.032C63.5075 15.0747 63.2088 15.1067 62.8781 15.128C62.5581 15.16 62.2275 15.176 61.8861 15.176C61.4488 15.176 61.0435 15.128 60.6701 15.032C60.3075 14.936 59.9875 14.7867 59.7101 14.584C59.4435 14.3707 59.2301 14.104 59.0701 13.784C58.9208 13.4533 58.8461 13.0533 58.8461 12.584C58.8461 12.136 58.9315 11.752 59.1021 11.432C59.2728 11.112 59.5128 10.8507 59.8221 10.648C60.1315 10.4347 60.4995 10.28 60.9261 10.184C61.3528 10.088 61.8168 10.04 62.3181 10.04C62.4675 10.04 62.6221 10.0507 62.7821 10.072C62.9528 10.0827 63.1128 10.104 63.2621 10.136C63.4221 10.1573 63.5555 10.184 63.6621 10.216C63.7795 10.2373 63.8595 10.2587 63.9021 10.28V9.768C63.9021 9.48 63.8808 9.20267 63.8381 8.936C63.7955 8.65867 63.6995 8.41333 63.5501 8.2C63.4115 7.976 63.2088 7.8 62.9421 7.672C62.6861 7.53333 62.3448 7.464 61.9181 7.464C61.3101 7.464 60.8568 7.50667 60.5581 7.592C60.2595 7.67733 60.0408 7.74667 59.9021 7.8L59.7581 6.888C59.9395 6.80267 60.2168 6.72267 60.5901 6.648C60.9741 6.57333 61.4328 6.536 61.9661 6.536ZM70.4108 6.568C70.7521 6.568 71.0721 6.59467 71.3708 6.648C71.6801 6.70133 71.8934 6.75467 72.0108 6.808L71.8028 7.704C71.7174 7.66133 71.5414 7.61867 71.2748 7.576C71.0188 7.52267 70.6774 7.496 70.2508 7.496C69.8028 7.496 69.4401 7.528 69.1628 7.592C68.8961 7.656 68.7201 7.70933 68.6348 7.752V15H67.5948V7.112C67.8614 6.99467 68.2294 6.87733 68.6988 6.76C69.1681 6.632 69.7388 6.568 70.4108 6.568ZM74.5551 6.728H77.8511V7.608H74.5551V12.008C74.5551 12.4773 74.5925 12.8613 74.6671 13.16C74.7525 13.448 74.8698 13.672 75.0191 13.832C75.1685 13.992 75.3498 14.0987 75.5631 14.152C75.7765 14.2053 76.0111 14.232 76.2671 14.232C76.7045 14.232 77.0565 14.184 77.3231 14.088C77.5898 13.9813 77.7978 13.8853 77.9471 13.8L78.2031 14.664C78.0538 14.76 77.7925 14.872 77.4191 15C77.0458 15.1173 76.6405 15.176 76.2031 15.176C75.6911 15.176 75.2591 15.112 74.9071 14.984C74.5658 14.8453 74.2885 14.6427 74.0751 14.376C73.8725 14.0987 73.7285 13.7573 73.6431 13.352C73.5578 12.9467 73.5151 12.4667 73.5151 11.912V4.296L74.5551 4.104V6.728ZM40.016 27.496C40.7413 27.496 41.2693 27.3733 41.6 27.128C41.9307 26.8827 42.096 26.536 42.096 26.088C42.096 25.8213 42.0373 25.592 41.92 25.4C41.8133 25.208 41.6533 25.0373 41.44 24.888C41.2373 24.728 40.9867 24.584 40.688 24.456C40.3893 24.3173 40.048 24.184 39.664 24.056C39.28 23.9173 38.9067 23.768 38.544 23.608C38.192 23.4373 37.8773 23.2293 37.6 22.984C37.3333 22.7387 37.1147 22.4453 36.944 22.104C36.784 21.7627 36.704 21.352 36.704 20.872C36.704 19.8693 37.0507 19.0853 37.744 18.52C38.4373 17.944 39.3813 17.656 40.576 17.656C41.2693 17.656 41.8827 17.736 42.416 17.896C42.96 18.0453 43.3867 18.2107 43.696 18.392L43.072 20.024C42.7093 19.8213 42.3093 19.6667 41.872 19.56C41.4453 19.4533 41.0027 19.4 40.544 19.4C40 19.4 39.5733 19.512 39.264 19.736C38.9653 19.96 38.816 20.2747 38.816 20.68C38.816 20.9253 38.864 21.1387 38.96 21.32C39.0667 21.4907 39.2107 21.6453 39.392 21.784C39.584 21.9227 39.8027 22.0507 40.048 22.168C40.304 22.2853 40.5813 22.3973 40.88 22.504C41.4027 22.696 41.8667 22.8933 42.272 23.096C42.688 23.288 43.0347 23.5227 43.312 23.8C43.6 24.0667 43.8187 24.3867 43.968 24.76C44.1173 25.1227 44.192 25.5653 44.192 26.088C44.192 27.0907 43.8347 27.8693 43.12 28.424C42.416 28.968 41.3813 29.24 40.016 29.24C39.5573 29.24 39.136 29.208 38.752 29.144C38.3787 29.0907 38.0427 29.0213 37.744 28.936C37.456 28.8507 37.2053 28.7653 36.992 28.68C36.7787 28.584 36.608 28.4987 36.48 28.424L37.072 26.776C37.36 26.936 37.7493 27.096 38.24 27.256C38.7307 27.416 39.3227 27.496 40.016 27.496ZM47.8086 23.896C48.054 23.64 48.3153 23.368 48.5926 23.08C48.87 22.7813 49.142 22.488 49.4086 22.2C49.6753 21.9013 49.926 21.6187 50.1606 21.352C50.406 21.0747 50.614 20.8347 50.7846 20.632H53.0726C52.5393 21.2293 51.974 21.848 51.3766 22.488C50.79 23.128 50.198 23.752 49.6006 24.36C49.9206 24.6267 50.2566 24.952 50.6086 25.336C50.9606 25.7093 51.302 26.1093 51.6326 26.536C51.9633 26.9627 52.2726 27.3893 52.5606 27.816C52.8486 28.2427 53.0886 28.6373 53.2806 29H51.0406C50.8486 28.6693 50.6246 28.3227 50.3686 27.96C50.1233 27.5973 49.8566 27.2453 49.5686 26.904C49.2806 26.5627 48.9873 26.2427 48.6886 25.944C48.39 25.6347 48.0966 25.3733 47.8086 25.16V29H45.8726V16.904L47.8086 16.584V23.896ZM56.6371 29H54.7011V20.632H56.6371V29ZM56.8451 18.184C56.8451 18.5467 56.7278 18.8347 56.4931 19.048C56.2585 19.2613 55.9811 19.368 55.6611 19.368C55.3305 19.368 55.0478 19.2613 54.8131 19.048C54.5785 18.8347 54.4611 18.5467 54.4611 18.184C54.4611 17.8107 54.5785 17.5173 54.8131 17.304C55.0478 17.0907 55.3305 16.984 55.6611 16.984C55.9811 16.984 56.2585 17.0907 56.4931 17.304C56.7278 17.5173 56.8451 17.8107 56.8451 18.184ZM62.019 29.16C61.443 29.1493 60.963 29.0853 60.579 28.968C60.2057 28.8507 59.907 28.6853 59.683 28.472C59.459 28.248 59.299 27.976 59.203 27.656C59.1177 27.3253 59.075 26.952 59.075 26.536V16.904L61.011 16.584V26.168C61.011 26.4027 61.027 26.6 61.059 26.76C61.1017 26.92 61.171 27.0587 61.267 27.176C61.363 27.2827 61.491 27.368 61.651 27.432C61.8217 27.4853 62.035 27.528 62.291 27.56L62.019 29.16ZM66.769 29.16C66.193 29.1493 65.713 29.0853 65.329 28.968C64.9557 28.8507 64.657 28.6853 64.433 28.472C64.209 28.248 64.049 27.976 63.953 27.656C63.8677 27.3253 63.825 26.952 63.825 26.536V16.904L65.761 16.584V26.168C65.761 26.4027 65.777 26.6 65.809 26.76C65.8517 26.92 65.921 27.0587 66.017 27.176C66.113 27.2827 66.241 27.368 66.401 27.432C66.5717 27.4853 66.785 27.528 67.041 27.56L66.769 29.16ZM70.703 27.608C71.215 27.608 71.5883 27.5493 71.823 27.432C72.0577 27.304 72.175 27.0907 72.175 26.792C72.175 26.5147 72.047 26.2853 71.791 26.104C71.5457 25.9227 71.135 25.7253 70.559 25.512C70.207 25.384 69.8817 25.2507 69.583 25.112C69.295 24.9627 69.0443 24.792 68.831 24.6C68.6177 24.408 68.447 24.1787 68.319 23.912C68.2017 23.6347 68.143 23.2987 68.143 22.904C68.143 22.136 68.4257 21.5333 68.991 21.096C69.5563 20.648 70.3243 20.424 71.295 20.424C71.7857 20.424 72.255 20.472 72.703 20.568C73.151 20.6533 73.487 20.7387 73.711 20.824L73.359 22.392C73.1457 22.296 72.8737 22.2107 72.543 22.136C72.2123 22.0507 71.8283 22.008 71.391 22.008C70.9963 22.008 70.6763 22.0773 70.431 22.216C70.1857 22.344 70.063 22.5467 70.063 22.824C70.063 22.9627 70.0843 23.0853 70.127 23.192C70.1803 23.2987 70.2657 23.4 70.383 23.496C70.5003 23.5813 70.655 23.672 70.847 23.768C71.039 23.8533 71.2737 23.944 71.551 24.04C72.0097 24.2107 72.399 24.3813 72.719 24.552C73.039 24.712 73.3003 24.8987 73.503 25.112C73.7163 25.3147 73.871 25.5493 73.967 25.816C74.063 26.0827 74.111 26.4027 74.111 26.776C74.111 27.576 73.8123 28.184 73.215 28.6C72.6283 29.0053 71.7857 29.208 70.687 29.208C69.951 29.208 69.359 29.144 68.911 29.016C68.463 28.8987 68.1483 28.8027 67.967 28.728L68.303 27.112C68.591 27.2293 68.9323 27.3413 69.327 27.448C69.7323 27.5547 70.191 27.608 70.703 27.608Z" fill="#0070AD"/>
</svg>
